/vscmnt/brussel_pixiu_data/_data_brussel/112/vsc11236/PredSimResults/SUBJ04opt3D/worker_07.mot
version=1
nRows=6
nColumns=50
inDegrees=yes
endheader
                time	         pelvis_tilt	         pelvis_list	     pelvis_rotation	           pelvis_tx	           pelvis_ty	           pelvis_tz	       hip_flexion_r	     hip_adduction_r	      hip_rotation_r	        knee_angle_r	       ankle_angle_r	         mtp_angle_r	       hip_flexion_l	     hip_adduction_l	      hip_rotation_l	        knee_angle_l	       ankle_angle_l	         mtp_angle_l	    lumbar_extension	      lumbar_bending	     lumbar_rotation	 ercspn_r/activation	 intobl_r/activation	 extobl_r/activation	    abd_r/activation	    add_r/activation	hamstrings_r/activation	bifemsh_r/activation	glut_max_r/activation	iliopsoas_r/activation	rect_fem_r/activation	  vasti_r/activation	gastroc_r/activation	 soleus_r/activation	tib_ant_r/activation	 ercspn_l/activation	 intobl_l/activation	 extobl_l/activation	    abd_l/activation	    add_l/activation	hamstrings_l/activation	bifemsh_l/activation	glut_max_l/activation	iliopsoas_l/activation	rect_fem_l/activation	  vasti_l/activation	gastroc_l/activation	 soleus_l/activation	tib_ant_l/activation	
          1.75069044	         -3.51786549	         -0.33993247	         -8.39197764	          2.10082852	          0.87364717	          0.00762074	        -14.24702752	         -0.81834298	         -7.56892225	        -10.75548827	          8.45132203	         30.54176476	         32.28170423	         -3.14085933	         -9.31516219	        -12.48297612	          5.46978343	          0.24985882	        -12.97197968	          1.98886587	          9.13286515	          0.05136602	          0.00999999	          0.00999999	          0.03470216	          0.00999999	          0.02754237	          0.18209753	          0.01589350	          0.04157247	          0.00999999	          0.00999999	          0.24241456	          0.26120809	          0.00999999	          0.06326367	          0.18644154	          0.01271667	          0.01348786	          0.34930621	          0.06234802	          0.02432030	          0.07375968	          0.15423056	          0.02708462	          0.06030452	          0.00999999	          0.00999999	          0.36708512	
          1.76236170	         -3.57355171	         -0.28147349	         -8.15664534	          2.11865612	          0.87147848	          0.00725759	        -14.66543248	         -1.06321348	         -8.22104607	        -12.04029264	          7.68844871	         32.23789986	         31.97189928	         -2.90209867	         -9.39271825	        -13.74300429	          5.09313690	          0.22875927	        -12.47113987	          1.39896763	          9.23888640	          0.07240991	          0.00999999	          0.00999999	          0.02905111	          0.00999999	          0.02305725	          0.15244396	          0.01330533	          0.05392991	          0.00999999	          0.00999999	          0.20293869	          0.23943484	          0.00999999	          0.05296153	          0.16370745	          0.01064583	          0.04119771	          0.29242363	          0.07221911	          0.02035988	          0.12537479	          0.12911497	          0.02267404	          0.07741618	          0.01645353	          0.02035987	          0.39334857	
          1.77403297	         -3.61466493	         -0.16999783	         -7.88223252	          2.13672545	          0.86950052	          0.00680625	        -14.89024245	         -1.39786391	         -8.89571326	        -13.72157771	          6.83409773	         33.90488511	         31.47866871	         -2.63540085	         -9.44290826	        -14.76098175	          4.61226977	          0.22371593	        -11.95299116	          0.74531182	          9.29517470	          0.06640629	          0.00999999	          0.00999999	          0.02432029	          0.00999999	          0.01930250	          0.12761930	          0.01113863	          0.07915990	          0.00999999	          0.00999999	          0.16989125	          0.20044420	          0.00999999	          0.05069627	          0.13704860	          0.00999999	          0.09475159	          0.24480406	          0.06817247	          0.01704438	          0.10495820	          0.10808931	          0.01898170	          0.13545599	          0.01377416	          0.01704438	          0.44837643	
          1.78570424	         -3.64301968	         -0.03211668	         -7.56565358	          2.15473507	          0.86792163	          0.00622868	        -14.82455776	         -1.81016526	         -9.58888934	        -15.93180279	          5.84528398	         35.48086560	         30.92008870	         -2.33891773	         -9.55194295	        -15.65765058	          4.09742798	          0.19409589	        -11.46044526	          0.06161174	          9.29847985	          0.10734660	          0.00999999	          0.00999999	          0.02035987	          0.00999999	          0.01615920	          0.10683720	          0.00999999	          0.06626915	          0.00999999	          0.00999999	          0.14222540	          0.16780297	          0.00999999	          0.05168396	          0.11473099	          0.00999999	          0.14324820	          0.22738780	          0.06881343	          0.01426880	          0.08786634	          0.09048756	          0.01589063	          0.22224154	          0.01153112	          0.01426879	          0.47862611	
          1.79737551	         -3.66091929	          0.14020283	         -7.22253218	          2.17244442	          0.86695849	          0.00552797	        -14.38899850	         -2.32920021	        -10.28413462	        -18.75632712	          4.66243458	         36.86509372	         30.34470456	         -2.00265185	         -9.67363013	        -16.55527856	          3.86878284	          0.16070533	        -11.01915271	         -0.65743656	          9.25728332	          0.16048271	          0.00999999	          0.00999999	          0.01704438	          0.03651788	          0.06727800	          0.08943936	          0.00999999	          0.05547758	          0.00999999	          0.00999999	          0.11906478	          0.14047719	          0.00999999	          0.04326751	          0.09604769	          0.00999999	          0.19017749	          0.19551373	          0.06398104	          0.01194520	          0.08439031	          0.07575216	          0.01330293	          0.29792379	          0.00999999	          0.01194520	          0.48362555	
          1.80904678	         -3.67154856	          0.34433009	         -6.86402845	          2.18964388	          0.86682718	          0.00471352	        -13.52951464	         -2.96850635	        -10.98556978	        -22.23009847	          3.25553509	         37.80090509	         29.75305672	         -1.61702832	         -9.74328378	        -17.42220907	          3.92705979	          0.13301189	        -10.65014436	         -1.40351284	          9.17937396	          0.17766109	          0.00999999	          0.00999999	          0.01426879	          0.14197064	          0.05632215	          0.07487465	          0.00999999	          0.04644337	          0.00999999	          0.00999999	          0.09967574	          0.11760125	          0.01405242	          0.03622164	          0.08040685	          0.00999999	          0.20513210	          0.19978607	          0.06571260	          0.00999999	          0.07064781	          0.06341634	          0.01113662	          0.34478696	          0.00999999	          0.00999999	          0.47236752	
